<svg id="kity_svg_6" xmlns="http://www.w3.org/2000/svg" xmlns:xlink="http://www.w3.org/1999/xlink" version="1.1" width="943" height="671" style="background: rgb(251, 251, 251); visibility: visible;" viewBox="0 0 943 671"><defs id="kity_defs_7"><linearGradient id="kity_linearGradient_17" x1="0" y1="0" x2="0" y2="1"><stop id="kity_stop_18" offset="0" stop-color="rgb(255, 255, 255)"></stop><stop id="kity_stop_19" offset="1" stop-color="rgb(204, 204, 204)"></stop></linearGradient><marker id="kity_marker_2" orient="auto" refX="6" refY="0" viewBox="-7 -7 14 14" markerWidth="7" markerHeight="7" markerUnits="userSpaceOnUse"><path id="kity_path_3" fill="rgb(123, 115, 191)" stroke="none" d="M6,0A6,6,0,1,1,-6,0A6,6,0,1,1,6,0"></path></marker></defs><g id="kity_g_8"><g id="minder1" text-rendering="optimize-speed"><g id="minder_connect_group1"><path id="kity_path_31" fill="none" stroke="rgb(123, 115, 191)" stroke-width="1" d="M418.0000114366412,340.5000031813979A74.5,285,0,0,1,492.5000114366412,55.500003181397915"></path><path id="kity_path_33" fill="none" stroke="rgb(123, 115, 191)" stroke-width="1" d="M742.5000114366412,55.500003181397915C745.5000114366412,55.500003181397915,745.5000114366412,41.500003181397915,748.5000114366412,41.500003181397915L817.5000114366412,41.500003181397915"></path><path id="kity_path_35" fill="none" stroke="rgb(123, 115, 191)" stroke-width="1" d="M742.5000114366412,55.500003181397915C745.5000114366412,55.500003181397915,745.5000114366412,67.50000318139791,748.5000114366412,67.50000318139791L817.5000114366412,67.50000318139791"></path><path id="kity_path_37" fill="none" stroke="rgb(123, 115, 191)" stroke-width="1" d="M742.5000114366412,55.500003181397915C745.5000114366412,55.500003181397915,745.5000114366412,93.50000318139791,748.5000114366412,93.50000318139791L818.5000114366412,93.50000318139791"></path><path id="kity_path_39" fill="none" stroke="rgb(123, 115, 191)" stroke-width="1" d="M418.0000114366412,340.5000031813979A74.5,221,0,0,1,492.5000114366412,119.50000318139791"></path><path id="kity_path_41" fill="none" stroke="rgb(123, 115, 191)" stroke-width="1" d="M418.0000114366412,340.5000031813979A74.5,164,0,0,1,492.5000114366412,176.50000318139791"></path><path id="kity_path_43" fill="none" stroke="rgb(123, 115, 191)" stroke-width="1" d="M759.5000114366412,176.50000318139791C762.5000114366412,176.50000318139791,762.5000114366412,169.50000318139791,765.5000114366412,169.50000318139791L834.5000114366412,169.50000318139791"></path><path id="kity_path_45" fill="none" stroke="rgb(123, 115, 191)" stroke-width="1" d="M759.5000114366412,176.50000318139791C762.5000114366412,176.50000318139791,762.5000114366412,208.50000318139791,765.5000114366412,208.50000318139791L847.5000114366412,208.50000318139791"></path><path id="kity_path_47" fill="none" stroke="rgb(123, 115, 191)" stroke-width="1" d="M847.5000114366412,208.50000318139791C850.5000114366412,208.50000318139791,850.5000114366412,195.50000318139791,853.5000114366412,195.50000318139791L923.5000114366412,195.50000318139791"></path><path id="kity_path_49" fill="none" stroke="rgb(123, 115, 191)" stroke-width="1" d="M847.5000114366412,208.50000318139791C850.5000114366412,208.50000318139791,850.5000114366412,221.50000318139791,853.5000114366412,221.50000318139791L917.5000114366412,221.50000318139791"></path><path id="kity_path_51" fill="none" stroke="rgb(123, 115, 191)" stroke-width="1" d="M418.0000114366412,340.5000031813979A74.5,84,0,0,1,492.5000114366412,256.5000031813979"></path><path id="kity_path_53" fill="none" stroke="rgb(123, 115, 191)" stroke-width="1" d="M746.5000114366412,256.5000031813979C749.5000114366412,256.5000031813979,749.5000114366412,255.50000318139791,752.5000114366412,255.50000318139791L821.5000114366412,255.50000318139791"></path><path id="kity_path_55" fill="none" stroke="rgb(123, 115, 191)" stroke-width="1" d="M746.5000114366412,256.5000031813979C749.5000114366412,256.5000031813979,749.5000114366412,281.5000031813979,752.5000114366412,281.5000031813979L820.5000114366412,281.5000031813979"></path><path id="kity_path_57" fill="none" stroke="rgb(123, 115, 191)" stroke-width="1" d="M418.0000114366412,340.5000031813979A74.5,24,0,0,1,492.5000114366412,316.5000031813979"></path><path id="kity_path_59" fill="none" stroke="rgb(123, 115, 191)" stroke-width="1" d="M767.5000114366412,316.5000031813979C770.5000114366412,316.5000031813979,770.5000114366412,315.5000031813979,773.5000114366412,315.5000031813979L855.5000114366412,315.5000031813979"></path><path id="kity_path_61" fill="none" stroke="rgb(123, 115, 191)" stroke-width="1" d="M767.5000114366412,316.5000031813979C770.5000114366412,316.5000031813979,770.5000114366412,341.5000031813979,773.5000114366412,341.5000031813979L855.5000114366412,341.5000031813979"></path><path id="kity_path_63" fill="none" stroke="rgb(123, 115, 191)" stroke-width="1" d="M418.0000114366412,340.5000031813979A74.5,88,0,0,0,492.5000114366412,428.5000031813979"></path><path id="kity_path_65" fill="none" stroke="rgb(123, 115, 191)" stroke-width="1" d="M691.5000114366412,428.5000031813979C694.5000114366412,428.5000031813979,694.5000114366412,375.5000031813979,697.5000114366412,375.5000031813979L767.5000114366412,375.5000031813979"></path><path id="kity_path_67" fill="none" stroke="rgb(123, 115, 191)" stroke-width="1" d="M691.5000114366412,428.5000031813979C694.5000114366412,428.5000031813979,694.5000114366412,401.5000031813979,697.5000114366412,401.5000031813979L766.5000114366412,401.5000031813979"></path><path id="kity_path_69" fill="none" stroke="rgb(123, 115, 191)" stroke-width="1" d="M691.5000114366412,428.5000031813979C694.5000114366412,428.5000031813979,694.5000114366412,427.5000031813979,697.5000114366412,427.5000031813979L766.5000114366412,427.5000031813979"></path><path id="kity_path_71" fill="none" stroke="rgb(123, 115, 191)" stroke-width="1" d="M691.5000114366412,428.5000031813979C694.5000114366412,428.5000031813979,694.5000114366412,453.5000031813979,697.5000114366412,453.5000031813979L791.5000114366412,453.5000031813979"></path><path id="kity_path_73" fill="none" stroke="rgb(123, 115, 191)" stroke-width="1" d="M691.5000114366412,428.5000031813979C694.5000114366412,428.5000031813979,694.5000114366412,479.5000031813979,697.5000114366412,479.5000031813979L778.5000114366412,479.5000031813979"></path><path id="kity_path_75" fill="none" stroke="rgb(123, 115, 191)" stroke-width="1" d="M691.5000114366412,428.5000031813979C694.5000114366412,428.5000031813979,694.5000114366412,505.5000031813979,697.5000114366412,505.5000031813979L802.5000114366412,505.5000031813979"></path><path id="kity_path_77" fill="none" stroke="rgb(123, 115, 191)" stroke-width="1" d="M418.0000114366412,340.5000031813979A74.5,213,0,0,0,492.5000114366412,553.5000031813979"></path><path id="kity_path_79" fill="none" stroke="rgb(123, 115, 191)" stroke-width="1" d="M715.5000114366412,553.5000031813979C718.5000114366412,553.5000031813979,718.5000114366412,539.5000031813979,721.5000114366412,539.5000031813979L791.5000114366412,539.5000031813979"></path><path id="kity_path_81" fill="none" stroke="rgb(123, 115, 191)" stroke-width="1" d="M715.5000114366412,553.5000031813979C718.5000114366412,553.5000031813979,718.5000114366412,565.5000031813979,721.5000114366412,565.5000031813979L778.5000114366412,565.5000031813979"></path><path id="kity_path_83" fill="none" stroke="rgb(123, 115, 191)" stroke-width="1" d="M715.5000114366412,553.5000031813979C718.5000114366412,553.5000031813979,718.5000114366412,591.5000031813979,721.5000114366412,591.5000031813979L790.5000114366412,591.5000031813979"></path><path id="kity_path_85" fill="none" stroke="rgb(123, 115, 191)" stroke-width="1" d="M418.0000114366412,340.5000031813979A74.5,286,0,0,0,492.5000114366412,626.5000031813979"></path><path id="kity_path_87" fill="none" stroke="rgb(123, 115, 191)" stroke-width="1" d="M736.5000114366412,626.5000031813979C739.5000114366412,626.5000031813979,739.5000114366412,625.5000031813979,742.5000114366412,625.5000031813979L805.5000114366412,625.5000031813979"></path><path id="kity_path_89" fill="none" stroke="rgb(123, 115, 191)" stroke-width="1" d="M736.5000114366412,626.5000031813979C739.5000114366412,626.5000031813979,739.5000114366412,651.5000031813979,742.5000114366412,651.5000031813979L811.5000114366412,651.5000031813979"></path><path id="kity_path_91" fill="none" stroke="rgb(123, 115, 191)" stroke-width="1" d="M418.0000114366412,340.5000031813979A74.5,213,0,0,0,343.5000114366412,127.50000318139791"></path><path id="kity_path_93" fill="none" stroke="rgb(123, 115, 191)" stroke-width="1" d="M107.50001143664122,127.50000318139791C104.50001143664122,127.50000318139791,104.50001143664122,74.50000318139791,101.50001143664122,74.50000318139791L31.500011436641216,74.50000318139791"></path><path id="kity_path_95" fill="none" stroke="rgb(123, 115, 191)" stroke-width="1" d="M107.50001143664122,127.50000318139791C104.50001143664122,127.50000318139791,104.50001143664122,100.50000318139791,101.50001143664122,100.50000318139791L32.500011436641216,100.50000318139791"></path><path id="kity_path_97" fill="none" stroke="rgb(123, 115, 191)" stroke-width="1" d="M107.50001143664122,127.50000318139791C104.50001143664122,127.50000318139791,104.50001143664122,126.50000318139791,101.50001143664122,126.50000318139791L41.500011436641216,126.50000318139791"></path><path id="kity_path_99" fill="none" stroke="rgb(123, 115, 191)" stroke-width="1" d="M107.50001143664122,127.50000318139791C104.50001143664122,127.50000318139791,104.50001143664122,152.50000318139791,101.50001143664122,152.50000318139791L32.500011436641216,152.50000318139791"></path><path id="kity_path_101" fill="none" stroke="rgb(123, 115, 191)" stroke-width="1" d="M107.50001143664122,127.50000318139791C104.50001143664122,127.50000318139791,104.50001143664122,178.50000318139791,101.50001143664122,178.50000318139791L30.500011436641216,178.50000318139791"></path><path id="kity_path_103" fill="none" stroke="rgb(123, 115, 191)" stroke-width="1" d="M107.50001143664122,127.50000318139791C104.50001143664122,127.50000318139791,104.50001143664122,204.50000318139791,101.50001143664122,204.50000318139791L20.500011436641216,204.50000318139791"></path><path id="kity_path_105" fill="none" stroke="rgb(123, 115, 191)" stroke-width="1" d="M418.0000114366412,340.5000031813979A74.5,75,0,0,0,343.5000114366412,265.5000031813979"></path><path id="kity_path_107" fill="none" stroke="rgb(123, 115, 191)" stroke-width="1" d="M116.50001143664122,265.5000031813979C113.50001143664122,265.5000031813979,113.50001143664122,238.50000318139791,110.50001143664122,238.50000318139791L54.500011436641216,238.50000318139791"></path><path id="kity_path_109" fill="none" stroke="rgb(123, 115, 191)" stroke-width="1" d="M116.50001143664122,265.5000031813979C113.50001143664122,265.5000031813979,113.50001143664122,264.5000031813979,110.50001143664122,264.5000031813979L53.500011436641216,264.5000031813979"></path><path id="kity_path_111" fill="none" stroke="rgb(123, 115, 191)" stroke-width="1" d="M116.50001143664122,265.5000031813979C113.50001143664122,265.5000031813979,113.50001143664122,290.5000031813979,110.50001143664122,290.5000031813979L54.500011436641216,290.5000031813979"></path><path id="kity_path_113" fill="none" stroke="rgb(123, 115, 191)" stroke-width="1" d="M116.50001143664122,265.5000031813979C113.50001143664122,265.5000031813979,113.50001143664122,316.5000031813979,110.50001143664122,316.5000031813979L53.500011436641216,316.5000031813979"></path><path id="kity_path_115" fill="none" stroke="rgb(123, 115, 191)" stroke-width="1" d="M418.0000114366412,340.5000031813979A74.5,24,0,0,1,343.5000114366412,364.5000031813979"></path><path id="kity_path_117" fill="none" stroke="rgb(123, 115, 191)" stroke-width="1" d="M111.50001143664122,364.5000031813979C108.50001143664122,364.5000031813979,108.50001143664122,350.5000031813979,105.50001143664122,350.5000031813979L35.500011436641216,350.5000031813979"></path><path id="kity_path_119" fill="none" stroke="rgb(123, 115, 191)" stroke-width="1" d="M111.50001143664122,364.5000031813979C108.50001143664122,364.5000031813979,108.50001143664122,376.5000031813979,105.50001143664122,376.5000031813979L35.500011436641216,376.5000031813979"></path><path id="kity_path_121" fill="none" stroke="rgb(123, 115, 191)" stroke-width="1" d="M111.50001143664122,364.5000031813979C108.50001143664122,364.5000031813979,108.50001143664122,402.5000031813979,105.50001143664122,402.5000031813979L36.500011436641216,402.5000031813979"></path><path id="kity_path_123" fill="none" stroke="rgb(123, 115, 191)" stroke-width="1" d="M418.0000114366412,340.5000031813979A74.5,88,0,0,1,343.5000114366412,428.5000031813979"></path><path id="kity_path_125" fill="none" stroke="rgb(123, 115, 191)" stroke-width="1" d="M94.50001143664122,428.5000031813979C91.50001143664122,428.5000031813979,91.50001143664122,440.5000031813979,88.50001143664122,440.5000031813979L37.500011436641216,440.5000031813979"></path><path id="kity_path_127" fill="none" stroke="rgb(123, 115, 191)" stroke-width="1" d="M418.0000114366412,340.5000031813979A74.5,130,0,0,1,343.5000114366412,470.5000031813979"></path><path id="kity_path_129" fill="none" stroke="rgb(123, 115, 191)" stroke-width="1" d="M418.0000114366412,340.5000031813979A74.5,172,0,0,1,343.5000114366412,512.5000031813979"></path><path id="kity_path_131" fill="none" stroke="rgb(123, 115, 191)" stroke-width="1" d="M418.0000114366412,340.5000031813979A74.5,214,0,0,1,343.5000114366412,554.5000031813979"></path></g><g id="minder_node1"><path id="node_outline1" fill="rgb(123, 115, 191)" stroke="rgb(123, 115, 191)" d="M364.5000114366412,326.5000031813979h107a5,5,0,0,1,5,5v18a5,5,0,0,1,-5,5h-107a5,5,0,0,1,-5,-5v-18a5,5,0,0,1,5,-5z" stroke-width="3"></path><g id="node_text1" fill="white"><text id="kity_text_22" text-rendering="inherit" font-size="16" dy=".8em" y="330.1000031456351" x="371.5000114366412">hyper-cloud</text></g></g><g id="kity_g_12"><path id="kity_path_13" fill="none" stroke="none" d="M371.5000114366412,340.5000031813979h0v0h0z"></path></g><g id="kity_g_14"><path id="kity_path_15" fill="none" stroke="none" d="M371.5000114366412,340.5000031813979h0v0h0z"></path><path id="kity_path_16" fill="none" stroke="none"></path></g><g id="minder_node2"><g id="node_expander4" style="cursor: pointer;"><path id="kity_path_295" fill="white" stroke="gray" d="M493.5000131651759,55.499998934566975A6,6,0,1,1,481.5000131651759,55.499998934566975A6,6,0,1,1,493.5000131651759,55.499998934566975"></path><path id="kity_path_296" fill="none" stroke="gray" d="M483.0000131651759,55.499998934566975L492.0000131651759,55.499998934566975"></path></g><path id="node_outline5" fill="rgb(239, 238, 246)" stroke="rgb(123, 115, 191)" d="M497.50001356750727,42.499998934566975h242a3,3,0,0,1,3,3v20a3,3,0,0,1,-3,3h-242a3,3,0,0,1,-3,-3v-20a3,3,0,0,1,3,-3z" stroke-width="1"></path><g id="node_text5" fill="black"><text id="kity_text_139" text-rendering="inherit" font-size="14" dy=".8em" y="46.399998903274536" x="514.5000135675073">hyper-cloud-ucenter (用户系统)</text></g></g><g id="minder_node3"><g id="node_expander1" display="none" style="cursor: pointer;"><path id="kity_path_286" fill="white" stroke="gray" d="M769.5000172778964,29.499998547136784A6,6,0,1,1,757.5000172778964,29.499998547136784A6,6,0,1,1,769.5000172778964,29.499998547136784"></path><path id="kity_path_287" fill="none" stroke="gray"></path></g><path id="node_outline2" fill="none" stroke="none" d="M763.5000172778964,20.499998547136784h49a5,5,0,0,1,5,5v8a5,5,0,0,1,-5,5h-49a5,5,0,0,1,-5,-5v-8a5,5,0,0,1,5,-5z"></path><g id="node_text2" fill="black"><text id="kity_text_133" text-rendering="inherit" font-size="12" dy=".8em" y="21.699998520314693" x="763.5000172778964">用户管理</text></g></g><g id="minder_node4"><g id="node_expander2" display="none" style="cursor: pointer;"><path id="kity_path_289" fill="white" stroke="gray" d="M769.5000172778964,55.499998934566975A6,6,0,1,1,757.5000172778964,55.499998934566975A6,6,0,1,1,769.5000172778964,55.499998934566975"></path><path id="kity_path_290" fill="none" stroke="gray"></path></g><path id="node_outline3" fill="none" stroke="none" d="M763.5000172778964,46.499998934566975h49a5,5,0,0,1,5,5v8a5,5,0,0,1,-5,5h-49a5,5,0,0,1,-5,-5v-8a5,5,0,0,1,5,-5z"></path><g id="node_text3" fill="black"><text id="kity_text_135" text-rendering="inherit" font-size="12" dy=".8em" y="47.699998907744884" x="763.5000172778964">部门管理</text></g></g><g id="minder_node5"><g id="node_expander3" display="none" style="cursor: pointer;"><path id="kity_path_292" fill="white" stroke="gray" d="M769.5000172778964,81.49999932199717A6,6,0,1,1,757.5000172778964,81.49999932199717A6,6,0,1,1,769.5000172778964,81.49999932199717"></path><path id="kity_path_293" fill="none" stroke="gray"></path></g><path id="node_outline4" fill="none" stroke="none" d="M763.5000172778964,72.49999932199717h50a5,5,0,0,1,5,5v8a5,5,0,0,1,-5,5h-50a5,5,0,0,1,-5,-5v-8a5,5,0,0,1,5,-5z"></path><g id="node_text4" fill="black"><text id="kity_text_137" text-rendering="inherit" font-size="12" dy=".8em" y="73.69999929517508" x="763.5000172778964">角色管理</text></g></g><g id="minder_node6"><g id="node_expander5" display="none" style="cursor: pointer;"><path id="kity_path_298" fill="white" stroke="gray" d="M520.5000135675073,119.49999988824129A6,6,0,1,1,508.50001356750727,119.49999988824129A6,6,0,1,1,520.5000135675073,119.49999988824129"></path><path id="kity_path_299" fill="none" stroke="gray"></path></g><path id="node_outline6" fill="rgb(239, 238, 246)" stroke="rgb(123, 115, 191)" d="M497.50001356750727,106.49999988824129h284a3,3,0,0,1,3,3v20a3,3,0,0,1,-3,3h-284a3,3,0,0,1,-3,-3v-20a3,3,0,0,1,3,-3z" stroke-width="1"></path><g id="node_text6" fill="black"><text id="kity_text_141" text-rendering="inherit" font-size="14" dy=".8em" y="110.39999985694885" x="514.5000135675073">hyper-cloud-upms (用户权限管理系统)</text></g></g><g id="minder_node7"><g id="node_expander10" style="cursor: pointer;"><path id="kity_path_313" fill="white" stroke="gray" d="M493.5000131651759,176.50000073760748A6,6,0,1,1,481.5000131651759,176.50000073760748A6,6,0,1,1,493.5000131651759,176.50000073760748"></path><path id="kity_path_314" fill="none" stroke="gray" d="M483.0000131651759,176.50000073760748L492.0000131651759,176.50000073760748"></path></g><path id="node_outline11" fill="rgb(239, 238, 246)" stroke="rgb(123, 115, 191)" d="M497.50001356750727,163.50000073760748h259a3,3,0,0,1,3,3v20a3,3,0,0,1,-3,3h-259a3,3,0,0,1,-3,-3v-20a3,3,0,0,1,3,-3z" stroke-width="1"></path><g id="node_text11" fill="black"><text id="kity_text_151" text-rendering="inherit" font-size="14" dy=".8em" y="167.40000070631504" x="514.5000135675073">hyper-cloud-loginsystem登录系统</text></g></g><g id="minder_node8"><g id="node_expander6" display="none" style="cursor: pointer;"><path id="kity_path_301" fill="white" stroke="gray" d="M786.5000175312161,157.50000045448542A6,6,0,1,1,774.5000175312161,157.50000045448542A6,6,0,1,1,786.5000175312161,157.50000045448542"></path><path id="kity_path_302" fill="none" stroke="gray"></path></g><path id="node_outline7" fill="none" stroke="none" d="M780.5000175312161,148.50000045448542h49a5,5,0,0,1,5,5v8a5,5,0,0,1,-5,5h-49a5,5,0,0,1,-5,-5v-8a5,5,0,0,1,5,-5z"></path><g id="node_text7" fill="black"><text id="kity_text_143" text-rendering="inherit" font-size="12" dy=".8em" y="149.70000042766333" x="780.5000175312161">普通登录</text></g></g><g id="minder_node9"><g id="node_expander9" style="cursor: pointer;"><path id="kity_path_310" fill="white" stroke="gray" d="M775.5000173673034,196.5000010356307A6,6,0,1,1,763.5000173673034,196.5000010356307A6,6,0,1,1,775.5000173673034,196.5000010356307"></path><path id="kity_path_311" fill="none" stroke="gray" d="M765.0000173673034,196.5000010356307L774.0000173673034,196.5000010356307"></path></g><path id="node_outline10" fill="none" stroke="none" d="M780.5000175312161,187.5000010356307h62a5,5,0,0,1,5,5v8a5,5,0,0,1,-5,5h-62a5,5,0,0,1,-5,-5v-8a5,5,0,0,1,5,-5z"></path><g id="node_text10" fill="black"><text id="kity_text_149" text-rendering="inherit" font-size="12" dy=".8em" y="188.7000010088086" x="780.5000175312161">第三方登录</text></g></g><g id="minder_node10"><g id="node_expander7" display="none" style="cursor: pointer;"><path id="kity_path_304" fill="white" stroke="gray" d="M874.5000188425183,183.5000008419156A6,6,0,1,1,862.5000188425183,183.5000008419156A6,6,0,1,1,874.5000188425183,183.5000008419156"></path><path id="kity_path_305" fill="none" stroke="gray"></path></g><path id="node_outline8" fill="none" stroke="none" d="M868.5000188425183,174.5000008419156h50a5,5,0,0,1,5,5v8a5,5,0,0,1,-5,5h-50a5,5,0,0,1,-5,-5v-8a5,5,0,0,1,5,-5z"></path><g id="node_text8" fill="black"><text id="kity_text_145" text-rendering="inherit" font-size="12" dy=".8em" y="175.70000081509352" x="868.5000188425183">微信登录</text></g></g><g id="minder_node11"><g id="node_expander8" display="none" style="cursor: pointer;"><path id="kity_path_307" fill="white" stroke="gray" d="M874.5000188425183,209.5000012293458A6,6,0,1,1,862.5000188425183,209.5000012293458A6,6,0,1,1,874.5000188425183,209.5000012293458"></path><path id="kity_path_308" fill="none" stroke="gray"></path></g><path id="node_outline9" fill="none" stroke="none" d="M868.5000188425183,200.5000012293458h44a5,5,0,0,1,5,5v8a5,5,0,0,1,-5,5h-44a5,5,0,0,1,-5,-5v-8a5,5,0,0,1,5,-5z"></path><g id="node_text9" fill="black"><text id="kity_text_147" text-rendering="inherit" font-size="12" dy=".8em" y="201.7000012025237" x="868.5000188425183">QQ登录</text></g></g><g id="minder_node12"><g id="node_expander13" style="cursor: pointer;"><path id="kity_path_322" fill="white" stroke="gray" d="M493.5000131651759,256.5000019297004A6,6,0,1,1,481.5000131651759,256.5000019297004A6,6,0,1,1,493.5000131651759,256.5000019297004"></path><path id="kity_path_323" fill="none" stroke="gray" d="M483.0000131651759,256.5000019297004L492.0000131651759,256.5000019297004"></path></g><path id="node_outline14" fill="rgb(239, 238, 246)" stroke="rgb(123, 115, 191)" d="M497.50001356750727,243.50000192970037h246a3,3,0,0,1,3,3v20a3,3,0,0,1,-3,3h-246a3,3,0,0,1,-3,-3v-20a3,3,0,0,1,3,-3z" stroke-width="1"></path><g id="node_text14" fill="black"><text id="kity_text_157" text-rendering="inherit" font-size="14" dy=".8em" y="247.40000189840794" x="514.5000135675073">hyper-cloud-cms (内容管理系统)</text></g></g><g id="minder_node13"><g id="node_expander11" display="none" style="cursor: pointer;"><path id="kity_path_316" fill="white" stroke="gray" d="M773.500017337501,243.50000173598528A6,6,0,1,1,761.500017337501,243.50000173598528A6,6,0,1,1,773.500017337501,243.50000173598528"></path><path id="kity_path_317" fill="none" stroke="gray"></path></g><path id="node_outline12" fill="none" stroke="none" d="M767.500017337501,234.50000173598528h49a5,5,0,0,1,5,5v8a5,5,0,0,1,-5,5h-49a5,5,0,0,1,-5,-5v-8a5,5,0,0,1,5,-5z"></path><g id="node_text12" fill="black"><text id="kity_text_153" text-rendering="inherit" font-size="12" dy=".8em" y="235.7000017091632" x="767.500017337501">通知通告</text></g></g><g id="minder_node14"><g id="node_expander12" display="none" style="cursor: pointer;"><path id="kity_path_319" fill="white" stroke="gray" d="M773.500017337501,269.50000212341547A6,6,0,1,1,761.500017337501,269.50000212341547A6,6,0,1,1,773.500017337501,269.50000212341547"></path><path id="kity_path_320" fill="none" stroke="gray"></path></g><path id="node_outline13" fill="none" stroke="none" d="M767.500017337501,260.50000212341547h48a5,5,0,0,1,5,5v8a5,5,0,0,1,-5,5h-48a5,5,0,0,1,-5,-5v-8a5,5,0,0,1,5,-5z"></path><g id="node_text13" fill="black"><text id="kity_text_155" text-rendering="inherit" font-size="12" dy=".8em" y="261.7000020965934" x="767.500017337501">网站首页</text></g></g><g id="minder_node15"><g id="node_expander16" style="cursor: pointer;"><path id="kity_path_331" fill="white" stroke="gray" d="M493.5000131651759,316.50000282377005A6,6,0,1,1,481.5000131651759,316.50000282377005A6,6,0,1,1,493.5000131651759,316.50000282377005"></path><path id="kity_path_332" fill="none" stroke="gray" d="M483.0000131651759,316.50000282377005L492.0000131651759,316.50000282377005"></path></g><path id="node_outline17" fill="rgb(239, 238, 246)" stroke="rgb(123, 115, 191)" d="M497.50001356750727,303.50000282377005h267a3,3,0,0,1,3,3v20a3,3,0,0,1,-3,3h-267a3,3,0,0,1,-3,-3v-20a3,3,0,0,1,3,-3z" stroke-width="1"></path><g id="node_text17" fill="black"><text id="kity_text_163" text-rendering="inherit" font-size="14" dy=".8em" y="307.4000027924776" x="514.5000135675073">hyper-cloud-wechat (微信管理系统)</text></g></g><g id="minder_node16"><g id="node_expander14" display="none" style="cursor: pointer;"><path id="kity_path_325" fill="white" stroke="gray" d="M794.5000176504254,303.50000263005495A6,6,0,1,1,782.5000176504254,303.50000263005495A6,6,0,1,1,794.5000176504254,303.50000263005495"></path><path id="kity_path_326" fill="none" stroke="gray"></path></g><path id="node_outline15" fill="none" stroke="none" d="M788.5000176504254,294.50000263005495h62a5,5,0,0,1,5,5v8a5,5,0,0,1,-5,5h-62a5,5,0,0,1,-5,-5v-8a5,5,0,0,1,5,-5z"></path><g id="node_text15" fill="black"><text id="kity_text_159" text-rendering="inherit" font-size="12" dy=".8em" y="295.70000260323286" x="788.5000176504254">公众号管理</text></g></g><g id="minder_node17"><g id="node_expander15" display="none" style="cursor: pointer;"><path id="kity_path_328" fill="white" stroke="gray" d="M794.5000176504254,329.50000301748514A6,6,0,1,1,782.5000176504254,329.50000301748514A6,6,0,1,1,794.5000176504254,329.50000301748514"></path><path id="kity_path_329" fill="none" stroke="gray"></path></g><path id="node_outline16" fill="none" stroke="none" d="M788.5000176504254,320.50000301748514h62a5,5,0,0,1,5,5v8a5,5,0,0,1,-5,5h-62a5,5,0,0,1,-5,-5v-8a5,5,0,0,1,5,-5z"></path><g id="node_text16" fill="black"><text id="kity_text_161" text-rendering="inherit" font-size="12" dy=".8em" y="321.70000299066305" x="788.5000176504254">企业号管理</text></g></g><g id="minder_node18"><g id="node_expander23" style="cursor: pointer;"><path id="kity_path_352" fill="white" stroke="gray" d="M493.5000131651759,428.5000044927001A6,6,0,1,1,481.5000131651759,428.5000044927001A6,6,0,1,1,493.5000131651759,428.5000044927001"></path><path id="kity_path_353" fill="none" stroke="gray" d="M483.0000131651759,428.5000044927001L492.0000131651759,428.5000044927001"></path></g><path id="node_outline24" fill="rgb(239, 238, 246)" stroke="rgb(123, 115, 191)" d="M497.50001356750727,415.5000044927001h191a3,3,0,0,1,3,3v20a3,3,0,0,1,-3,3h-191a3,3,0,0,1,-3,-3v-20a3,3,0,0,1,3,-3z" stroke-width="1"></path><g id="node_text24" fill="black"><text id="kity_text_177" text-rendering="inherit" font-size="14" dy=".8em" y="419.40000446140766" x="514.5000135675073">hyper-cloud- (系统管理)</text></g></g><g id="minder_node19"><g id="node_expander17" display="none" style="cursor: pointer;"><path id="kity_path_334" fill="white" stroke="gray" d="M718.5000165179372,363.5000035241246A6,6,0,1,1,706.5000165179372,363.5000035241246A6,6,0,1,1,718.5000165179372,363.5000035241246"></path><path id="kity_path_335" fill="none" stroke="gray"></path></g><path id="node_outline18" fill="none" stroke="none" d="M712.5000165179372,354.5000035241246h50a5,5,0,0,1,5,5v8a5,5,0,0,1,-5,5h-50a5,5,0,0,1,-5,-5v-8a5,5,0,0,1,5,-5z"></path><g id="node_text18" fill="black"><text id="kity_text_165" text-rendering="inherit" font-size="12" dy=".8em" y="355.70000349730253" x="712.5000165179372">菜单管理</text></g></g><g id="minder_node20"><g id="node_expander18" display="none" style="cursor: pointer;"><path id="kity_path_337" fill="white" stroke="gray" d="M718.5000165179372,389.5000039115548A6,6,0,1,1,706.5000165179372,389.5000039115548A6,6,0,1,1,718.5000165179372,389.5000039115548"></path><path id="kity_path_338" fill="none" stroke="gray"></path></g><path id="node_outline19" fill="none" stroke="none" d="M712.5000165179372,380.5000039115548h49a5,5,0,0,1,5,5v8a5,5,0,0,1,-5,5h-49a5,5,0,0,1,-5,-5v-8a5,5,0,0,1,5,-5z"></path><g id="node_text19" fill="black"><text id="kity_text_167" text-rendering="inherit" font-size="12" dy=".8em" y="381.7000038847327" x="712.5000165179372">会话管理</text></g></g><g id="minder_node21"><g id="node_expander19" display="none" style="cursor: pointer;"><path id="kity_path_340" fill="white" stroke="gray" d="M718.5000165179372,415.500004298985A6,6,0,1,1,706.5000165179372,415.500004298985A6,6,0,1,1,718.5000165179372,415.500004298985"></path><path id="kity_path_341" fill="none" stroke="gray"></path></g><path id="node_outline20" fill="none" stroke="none" d="M712.5000165179372,406.500004298985h49a5,5,0,0,1,5,5v8a5,5,0,0,1,-5,5h-49a5,5,0,0,1,-5,-5v-8a5,5,0,0,1,5,-5z"></path><g id="node_text20" fill="black"><text id="kity_text_169" text-rendering="inherit" font-size="12" dy=".8em" y="407.7000042721629" x="712.5000165179372">字典管理</text></g></g><g id="minder_node22"><g id="node_expander20" display="none" style="cursor: pointer;"><path id="kity_path_343" fill="white" stroke="gray" d="M718.5000165179372,441.5000046864152A6,6,0,1,1,706.5000165179372,441.5000046864152A6,6,0,1,1,718.5000165179372,441.5000046864152"></path><path id="kity_path_344" fill="none" stroke="gray"></path></g><path id="node_outline21" fill="none" stroke="none" d="M712.5000165179372,432.5000046864152h74a5,5,0,0,1,5,5v8a5,5,0,0,1,-5,5h-74a5,5,0,0,1,-5,-5v-8a5,5,0,0,1,5,-5z"></path><g id="node_text21" fill="black"><text id="kity_text_171" text-rendering="inherit" font-size="12" dy=".8em" y="433.7000046595931" x="712.5000165179372">系统参数管理</text></g></g><g id="minder_node23"><g id="node_expander21" display="none" style="cursor: pointer;"><path id="kity_path_346" fill="white" stroke="gray" d="M718.5000165179372,467.5000050738454A6,6,0,1,1,706.5000165179372,467.5000050738454A6,6,0,1,1,718.5000165179372,467.5000050738454"></path><path id="kity_path_347" fill="none" stroke="gray"></path></g><path id="node_outline22" fill="none" stroke="none" d="M712.5000165179372,458.5000050738454h61a5,5,0,0,1,5,5v8a5,5,0,0,1,-5,5h-61a5,5,0,0,1,-5,-5v-8a5,5,0,0,1,5,-5z"></path><g id="node_text22" fill="black"><text id="kity_text_173" text-rendering="inherit" font-size="12" dy=".8em" y="459.7000050470233" x="712.5000165179372">子程序管理</text></g></g><g id="minder_node24"><g id="node_expander22" display="none" style="cursor: pointer;"><path id="kity_path_349" fill="white" stroke="gray" d="M718.5000165179372,493.5000054612756A6,6,0,1,1,706.5000165179372,493.5000054612756A6,6,0,1,1,718.5000165179372,493.5000054612756"></path><path id="kity_path_350" fill="none" stroke="gray"></path></g><path id="node_outline23" fill="none" stroke="none" d="M712.5000165179372,484.5000054612756h85a5,5,0,0,1,5,5v8a5,5,0,0,1,-5,5h-85a5,5,0,0,1,-5,-5v-8a5,5,0,0,1,5,-5z"></path><g id="node_text23" fill="black"><text id="kity_text_175" text-rendering="inherit" font-size="12" dy=".8em" y="485.7000054344535" x="712.5000165179372">第三方登录接口</text></g></g><g id="minder_node25"><g id="node_expander27" style="cursor: pointer;"><path id="kity_path_364" fill="white" stroke="gray" d="M493.5000131651759,553.5000063553452A6,6,0,1,1,481.5000131651759,553.5000063553452A6,6,0,1,1,493.5000131651759,553.5000063553452"></path><path id="kity_path_365" fill="none" stroke="gray" d="M483.0000131651759,553.5000063553452L492.0000131651759,553.5000063553452"></path></g><path id="node_outline28" fill="rgb(239, 238, 246)" stroke="rgb(123, 115, 191)" d="M497.50001356750727,540.5000063553452h215a3,3,0,0,1,3,3v20a3,3,0,0,1,-3,3h-215a3,3,0,0,1,-3,-3v-20a3,3,0,0,1,3,-3z" stroke-width="1"></path><g id="node_text28" fill="black"><text id="kity_text_185" text-rendering="inherit" font-size="14" dy=".8em" y="544.4000063240528" x="514.5000135675073">hyper-cloud-pay (支付系统)</text></g></g><g id="minder_node26"><g id="node_expander24" display="none" style="cursor: pointer;"><path id="kity_path_355" fill="white" stroke="gray" d="M742.500016875565,527.5000059679151A6,6,0,1,1,730.500016875565,527.5000059679151A6,6,0,1,1,742.500016875565,527.5000059679151"></path><path id="kity_path_356" fill="none" stroke="gray"></path></g><path id="node_outline25" fill="none" stroke="none" d="M736.500016875565,518.5000059679151h50a5,5,0,0,1,5,5v8a5,5,0,0,1,-5,5h-50a5,5,0,0,1,-5,-5v-8a5,5,0,0,1,5,-5z"></path><g id="node_text25" fill="black"><text id="kity_text_179" text-rendering="inherit" font-size="12" dy=".8em" y="519.700005941093" x="736.500016875565">银联系统</text></g></g><g id="minder_node27"><g id="node_expander25" display="none" style="cursor: pointer;"><path id="kity_path_358" fill="white" stroke="gray" d="M742.500016875565,553.5000063553452A6,6,0,1,1,730.500016875565,553.5000063553452A6,6,0,1,1,742.500016875565,553.5000063553452"></path><path id="kity_path_359" fill="none" stroke="gray"></path></g><path id="node_outline26" fill="none" stroke="none" d="M736.500016875565,544.5000063553452h37a5,5,0,0,1,5,5v8a5,5,0,0,1,-5,5h-37a5,5,0,0,1,-5,-5v-8a5,5,0,0,1,5,-5z"></path><g id="node_text26" fill="black"><text id="kity_text_181" text-rendering="inherit" font-size="12" dy=".8em" y="545.7000063285232" x="736.500016875565">支付宝</text></g></g><g id="minder_node28"><g id="node_expander26" display="none" style="cursor: pointer;"><path id="kity_path_361" fill="white" stroke="gray" d="M742.500016875565,579.5000067427754A6,6,0,1,1,730.500016875565,579.5000067427754A6,6,0,1,1,742.500016875565,579.5000067427754"></path><path id="kity_path_362" fill="none" stroke="gray"></path></g><path id="node_outline27" fill="none" stroke="none" d="M736.500016875565,570.5000067427754h49a5,5,0,0,1,5,5v8a5,5,0,0,1,-5,5h-49a5,5,0,0,1,-5,-5v-8a5,5,0,0,1,5,-5z"></path><g id="node_text27" fill="black"><text id="kity_text_183" text-rendering="inherit" font-size="12" dy=".8em" y="571.7000067159534" x="736.500016875565">微信支付</text></g></g><g id="minder_node29"><g id="node_expander30" style="cursor: pointer;"><path id="kity_path_373" fill="white" stroke="gray" d="M493.5000131651759,626.50000744313A6,6,0,1,1,481.5000131651759,626.50000744313A6,6,0,1,1,493.5000131651759,626.50000744313"></path><path id="kity_path_374" fill="none" stroke="gray" d="M483.0000131651759,626.50000744313L492.0000131651759,626.50000744313"></path></g><path id="node_outline31" fill="rgb(239, 238, 246)" stroke="rgb(123, 115, 191)" d="M497.50001356750727,613.50000744313h236a3,3,0,0,1,3,3v20a3,3,0,0,1,-3,3h-236a3,3,0,0,1,-3,-3v-20a3,3,0,0,1,3,-3z" stroke-width="1"></path><g id="node_text31" fill="black"><text id="kity_text_191" text-rendering="inherit" font-size="14" dy=".8em" y="617.4000074118376" x="514.5000135675073">hyper-cloud-im (即时通讯系统)</text></g></g><g id="minder_node30"><g id="node_expander28" display="none" style="cursor: pointer;"><path id="kity_path_367" fill="white" stroke="gray" d="M763.5000171884894,613.5000072494149A6,6,0,1,1,751.5000171884894,613.5000072494149A6,6,0,1,1,763.5000171884894,613.5000072494149"></path><path id="kity_path_368" fill="none" stroke="gray"></path></g><path id="node_outline29" fill="none" stroke="none" d="M757.5000171884894,604.5000072494149h43a5,5,0,0,1,5,5v8a5,5,0,0,1,-5,5h-43a5,5,0,0,1,-5,-5v-8a5,5,0,0,1,5,-5z"></path><g id="node_text29" fill="black"><text id="kity_text_187" text-rendering="inherit" font-size="12" dy=".8em" y="605.7000072225928" x="757.5000171884894">WebIM</text></g></g><g id="minder_node31"><g id="node_expander29" display="none" style="cursor: pointer;"><path id="kity_path_370" fill="white" stroke="gray" d="M763.5000171884894,639.5000076368451A6,6,0,1,1,751.5000171884894,639.5000076368451A6,6,0,1,1,763.5000171884894,639.5000076368451"></path><path id="kity_path_371" fill="none" stroke="gray"></path></g><path id="node_outline30" fill="none" stroke="none" d="M757.5000171884894,630.5000076368451h49a5,5,0,0,1,5,5v8a5,5,0,0,1,-5,5h-49a5,5,0,0,1,-5,-5v-8a5,5,0,0,1,5,-5z"></path><g id="node_text30" fill="black"><text id="kity_text_189" text-rendering="inherit" font-size="12" dy=".8em" y="631.700007610023" x="757.5000171884894">视频通话</text></g></g><g id="minder_node32"><g id="node_expander37" style="cursor: pointer;"><path id="kity_path_394" fill="white" stroke="gray" d="M354.5000110939145,127.50000000745058A6,6,0,1,1,342.5000110939145,127.50000000745058A6,6,0,1,1,354.5000110939145,127.50000000745058"></path><path id="kity_path_395" fill="none" stroke="gray" d="M344.0000110939145,127.50000000745058L353.0000110939145,127.50000000745058"></path></g><path id="node_outline38" fill="rgb(239, 238, 246)" stroke="rgb(123, 115, 191)" d="M110.50000780075788,114.50000000745058h228a3,3,0,0,1,3,3v20a3,3,0,0,1,-3,3h-228a3,3,0,0,1,-3,-3v-20a3,3,0,0,1,3,-3z" stroke-width="1"></path><g id="node_text38" fill="black"><text id="kity_text_205" text-rendering="inherit" font-size="14" dy=".8em" y="118.39999997615814" x="127.50000780075788">hyper-cloud-eoms (运维系统)</text></g></g><g id="minder_node33"><g id="node_expander31" display="none" style="cursor: pointer;"><path id="kity_path_376" fill="white" stroke="gray" d="M42.500006444752216,62.4999990388751A6,6,0,1,1,30.500006444752216,62.4999990388751A6,6,0,1,1,42.500006444752216,62.4999990388751"></path><path id="kity_path_377" fill="none" stroke="gray"></path></g><path id="node_outline32" fill="none" stroke="none" d="M36.500006444752216,53.4999990388751h50a5,5,0,0,1,5,5v8a5,5,0,0,1,-5,5h-50a5,5,0,0,1,-5,-5v-8a5,5,0,0,1,5,-5z"></path><g id="node_text32" fill="black"><text id="kity_text_193" text-rendering="inherit" font-size="12" dy=".8em" y="54.69999901205301" x="36.500006444752216">系统日志</text></g></g><g id="minder_node34"><g id="node_expander32" display="none" style="cursor: pointer;"><path id="kity_path_379" fill="white" stroke="gray" d="M43.50000645965338,88.4999994263053A6,6,0,1,1,31.500006459653378,88.4999994263053A6,6,0,1,1,43.50000645965338,88.4999994263053"></path><path id="kity_path_380" fill="none" stroke="gray"></path></g><path id="node_outline33" fill="none" stroke="none" d="M37.50000645965338,79.4999994263053h49a5,5,0,0,1,5,5v8a5,5,0,0,1,-5,5h-49a5,5,0,0,1,-5,-5v-8a5,5,0,0,1,5,-5z"></path><g id="node_text33" fill="black"><text id="kity_text_195" text-rendering="inherit" font-size="12" dy=".8em" y="80.6999993994832" x="37.50000645965338">用户日志</text></g></g><g id="minder_node35"><g id="node_expander33" display="none" style="cursor: pointer;"><path id="kity_path_382" fill="white" stroke="gray" d="M52.50000659376383,114.49999981373549A6,6,0,1,1,40.50000659376383,114.49999981373549A6,6,0,1,1,52.50000659376383,114.49999981373549"></path><path id="kity_path_383" fill="none" stroke="gray"></path></g><path id="node_outline34" fill="none" stroke="none" d="M46.50000659376383,105.49999981373549h40a5,5,0,0,1,5,5v8a5,5,0,0,1,-5,5h-40a5,5,0,0,1,-5,-5v-8a5,5,0,0,1,5,-5z"></path><g id="node_text34" fill="black"><text id="kity_text_197" text-rendering="inherit" font-size="12" dy=".8em" y="106.6999997869134" x="46.50000659376383">PV日志</text></g></g><g id="minder_node36"><g id="node_expander34" display="none" style="cursor: pointer;"><path id="kity_path_385" fill="white" stroke="gray" d="M43.50000645965338,140.50000020116568A6,6,0,1,1,31.500006459653378,140.50000020116568A6,6,0,1,1,43.50000645965338,140.50000020116568"></path><path id="kity_path_386" fill="none" stroke="gray"></path></g><path id="node_outline35" fill="none" stroke="none" d="M37.50000645965338,131.50000020116568h49a5,5,0,0,1,5,5v8a5,5,0,0,1,-5,5h-49a5,5,0,0,1,-5,-5v-8a5,5,0,0,1,5,-5z"></path><g id="node_text35" fill="black"><text id="kity_text_199" text-rendering="inherit" font-size="12" dy=".8em" y="132.7000001743436" x="37.50000645965338">实时日志</text></g></g><g id="minder_node37"><g id="node_expander35" display="none" style="cursor: pointer;"><path id="kity_path_388" fill="white" stroke="gray" d="M41.500006429851055,166.50000058859587A6,6,0,1,1,29.500006429851055,166.50000058859587A6,6,0,1,1,41.500006429851055,166.50000058859587"></path><path id="kity_path_389" fill="none" stroke="gray"></path></g><path id="node_outline36" fill="none" stroke="none" d="M35.500006429851055,157.50000058859587h51a5,5,0,0,1,5,5v8a5,5,0,0,1,-5,5h-51a5,5,0,0,1,-5,-5v-8a5,5,0,0,1,5,-5z"></path><g id="node_text36" fill="black"><text id="kity_text_201" text-rendering="inherit" font-size="12" dy=".8em" y="158.70000056177378" x="35.500006429851055">webshell</text></g></g><g id="minder_node38"><g id="node_expander36" display="none" style="cursor: pointer;"><path id="kity_path_391" fill="white" stroke="gray" d="M31.500006280839443,192.50000097602606A6,6,0,1,1,19.500006280839443,192.50000097602606A6,6,0,1,1,31.500006280839443,192.50000097602606"></path><path id="kity_path_392" fill="none" stroke="gray"></path></g><path id="node_outline37" fill="none" stroke="none" d="M25.500006280839443,183.50000097602606h61a5,5,0,0,1,5,5v8a5,5,0,0,1,-5,5h-61a5,5,0,0,1,-5,-5v-8a5,5,0,0,1,5,-5z"></path><g id="node_text37" fill="black"><text id="kity_text_203" text-rendering="inherit" font-size="12" dy=".8em" y="184.70000094920397" x="25.500006280839443">系统终结者</text></g></g><g id="minder_node39"><g id="node_expander42" style="cursor: pointer;"><path id="kity_path_409" fill="white" stroke="gray" d="M354.5000110939145,265.5000020638108A6,6,0,1,1,342.5000110939145,265.5000020638108A6,6,0,1,1,354.5000110939145,265.5000020638108"></path><path id="kity_path_410" fill="none" stroke="gray" d="M344.0000110939145,265.5000020638108L353.0000110939145,265.5000020638108"></path></g><path id="node_outline43" fill="rgb(239, 238, 246)" stroke="rgb(123, 115, 191)" d="M119.50000793486834,252.50000206381083h219a3,3,0,0,1,3,3v20a3,3,0,0,1,-3,3h-219a3,3,0,0,1,-3,-3v-20a3,3,0,0,1,3,-3z" stroke-width="1"></path><g id="node_text43" fill="black"><text id="kity_text_215" text-rendering="inherit" font-size="14" dy=".8em" y="256.4000020325184" x="136.50000793486834">hyper-cloud-mail (邮件系统)</text></g></g><g id="minder_node40"><g id="node_expander38" display="none" style="cursor: pointer;"><path id="kity_path_397" fill="white" stroke="gray" d="M65.50000678747892,226.50000148266554A6,6,0,1,1,53.500006787478924,226.50000148266554A6,6,0,1,1,65.50000678747892,226.50000148266554"></path><path id="kity_path_398" fill="none" stroke="gray"></path></g><path id="node_outline39" fill="none" stroke="none" d="M59.500006787478924,217.50000148266554h36a5,5,0,0,1,5,5v8a5,5,0,0,1,-5,5h-36a5,5,0,0,1,-5,-5v-8a5,5,0,0,1,5,-5z"></path><g id="node_text39" fill="black"><text id="kity_text_207" text-rendering="inherit" font-size="12" dy=".8em" y="218.70000145584345" x="59.500006787478924">收件箱</text></g></g><g id="minder_node41"><g id="node_expander39" display="none" style="cursor: pointer;"><path id="kity_path_400" fill="white" stroke="gray" d="M64.50000677257776,252.50000187009573A6,6,0,1,1,52.50000677257776,252.50000187009573A6,6,0,1,1,64.50000677257776,252.50000187009573"></path><path id="kity_path_401" fill="none" stroke="gray"></path></g><path id="node_outline40" fill="none" stroke="none" d="M58.50000677257776,243.50000187009573h37a5,5,0,0,1,5,5v8a5,5,0,0,1,-5,5h-37a5,5,0,0,1,-5,-5v-8a5,5,0,0,1,5,-5z"></path><g id="node_text40" fill="black"><text id="kity_text_209" text-rendering="inherit" font-size="12" dy=".8em" y="244.70000184327364" x="58.50000677257776">发件箱</text></g></g><g id="minder_node42"><g id="node_expander40" display="none" style="cursor: pointer;"><path id="kity_path_403" fill="white" stroke="gray" d="M65.50000678747892,278.5000022575259A6,6,0,1,1,53.500006787478924,278.5000022575259A6,6,0,1,1,65.50000678747892,278.5000022575259"></path><path id="kity_path_404" fill="none" stroke="gray"></path></g><path id="node_outline41" fill="none" stroke="none" d="M59.500006787478924,269.5000022575259h36a5,5,0,0,1,5,5v8a5,5,0,0,1,-5,5h-36a5,5,0,0,1,-5,-5v-8a5,5,0,0,1,5,-5z"></path><g id="node_text41" fill="black"><text id="kity_text_211" text-rendering="inherit" font-size="12" dy=".8em" y="270.70000223070383" x="59.500006787478924">草稿箱</text></g></g><g id="minder_node43"><g id="node_expander41" display="none" style="cursor: pointer;"><path id="kity_path_406" fill="white" stroke="gray" d="M64.50000677257776,304.5000026449561A6,6,0,1,1,52.50000677257776,304.5000026449561A6,6,0,1,1,64.50000677257776,304.5000026449561"></path><path id="kity_path_407" fill="none" stroke="gray"></path></g><path id="node_outline42" fill="none" stroke="none" d="M58.50000677257776,295.5000026449561h37a5,5,0,0,1,5,5v8a5,5,0,0,1,-5,5h-37a5,5,0,0,1,-5,-5v-8a5,5,0,0,1,5,-5z"></path><g id="node_text42" fill="black"><text id="kity_text_213" text-rendering="inherit" font-size="12" dy=".8em" y="296.700002618134" x="58.50000677257776">回收站</text></g></g><g id="minder_node44"><g id="node_expander46" style="cursor: pointer;"><path id="kity_path_421" fill="white" stroke="gray" d="M354.5000110939145,364.5000035390258A6,6,0,1,1,342.5000110939145,364.5000035390258A6,6,0,1,1,354.5000110939145,364.5000035390258"></path><path id="kity_path_422" fill="none" stroke="gray" d="M344.0000110939145,364.5000035390258L353.0000110939145,364.5000035390258"></path></g><path id="node_outline47" fill="rgb(239, 238, 246)" stroke="rgb(123, 115, 191)" d="M114.50000786036253,351.5000035390258h224a3,3,0,0,1,3,3v20a3,3,0,0,1,-3,3h-224a3,3,0,0,1,-3,-3v-20a3,3,0,0,1,3,-3z" stroke-width="1"></path><g id="node_text47" fill="black"><text id="kity_text_223" text-rendering="inherit" font-size="14" dy=".8em" y="355.40000350773335" x="131.50000786036253">hyper-cloud-push (推送系统)</text></g></g><g id="minder_node45"><g id="node_expander43" display="none" style="cursor: pointer;"><path id="kity_path_412" fill="white" stroke="gray" d="M46.50000650435686,338.5000031515956A6,6,0,1,1,34.50000650435686,338.5000031515956A6,6,0,1,1,46.50000650435686,338.5000031515956"></path><path id="kity_path_413" fill="none" stroke="gray"></path></g><path id="node_outline44" fill="none" stroke="none" d="M40.50000650435686,329.5000031515956h50a5,5,0,0,1,5,5v8a5,5,0,0,1,-5,5h-50a5,5,0,0,1,-5,-5v-8a5,5,0,0,1,5,-5z"></path><g id="node_text44" fill="black"><text id="kity_text_217" text-rendering="inherit" font-size="12" dy=".8em" y="330.7000031247735" x="40.50000650435686">短信推送</text></g></g><g id="minder_node46"><g id="node_expander44" display="none" style="cursor: pointer;"><path id="kity_path_415" fill="white" stroke="gray" d="M46.50000650435686,364.5000035390258A6,6,0,1,1,34.50000650435686,364.5000035390258A6,6,0,1,1,46.50000650435686,364.5000035390258"></path><path id="kity_path_416" fill="none" stroke="gray"></path></g><path id="node_outline45" fill="none" stroke="none" d="M40.50000650435686,355.5000035390258h50a5,5,0,0,1,5,5v8a5,5,0,0,1,-5,5h-50a5,5,0,0,1,-5,-5v-8a5,5,0,0,1,5,-5z"></path><g id="node_text45" fill="black"><text id="kity_text_219" text-rendering="inherit" font-size="12" dy=".8em" y="356.7000035122037" x="40.50000650435686">微信推送</text></g></g><g id="minder_node47"><g id="node_expander45" display="none" style="cursor: pointer;"><path id="kity_path_418" fill="white" stroke="gray" d="M47.50000651925802,390.500003926456A6,6,0,1,1,35.50000651925802,390.500003926456A6,6,0,1,1,47.50000651925802,390.500003926456"></path><path id="kity_path_419" fill="none" stroke="gray"></path></g><path id="node_outline46" fill="none" stroke="none" d="M41.50000651925802,381.500003926456h49a5,5,0,0,1,5,5v8a5,5,0,0,1,-5,5h-49a5,5,0,0,1,-5,-5v-8a5,5,0,0,1,5,-5z"></path><g id="node_text46" fill="black"><text id="kity_text_221" text-rendering="inherit" font-size="12" dy=".8em" y="382.7000038996339" x="41.50000651925802">邮件推送</text></g></g><g id="minder_node48"><g id="node_expander48" style="cursor: pointer;"><path id="kity_path_427" fill="white" stroke="gray" d="M354.5000110939145,428.5000044927001A6,6,0,1,1,342.5000110939145,428.5000044927001A6,6,0,1,1,354.5000110939145,428.5000044927001"></path><path id="kity_path_428" fill="none" stroke="gray" d="M344.0000110939145,428.5000044927001L353.0000110939145,428.5000044927001"></path></g><path id="node_outline49" fill="rgb(239, 238, 246)" stroke="rgb(123, 115, 191)" d="M97.50000760704279,415.5000044927001h241a3,3,0,0,1,3,3v20a3,3,0,0,1,-3,3h-241a3,3,0,0,1,-3,-3v-20a3,3,0,0,1,3,-3z" stroke-width="1"></path><g id="node_text49" fill="black"><text id="kity_text_227" text-rendering="inherit" font-size="14" dy=".8em" y="419.40000446140766" x="114.50000760704279">hyper-cloud-oss (对象存储系统)</text></g></g><g id="minder_node49"><g id="node_expander47" display="none" style="cursor: pointer;"><path id="kity_path_424" fill="white" stroke="gray" d="M48.50000653415918,428.5000044927001A6,6,0,1,1,36.50000653415918,428.5000044927001A6,6,0,1,1,48.50000653415918,428.5000044927001"></path><path id="kity_path_425" fill="none" stroke="gray"></path></g><path id="node_outline48" fill="none" stroke="none" d="M42.50000653415918,419.5000044927001h31a5,5,0,0,1,5,5v8a5,5,0,0,1,-5,5h-31a5,5,0,0,1,-5,-5v-8a5,5,0,0,1,5,-5z"></path><g id="node_text48" fill="black"><text id="kity_text_225" text-rendering="inherit" font-size="12" dy=".8em" y="420.700004465878" x="42.50000653415918">Redis</text></g></g><g id="minder_node50"><g id="node_expander49" display="none" style="cursor: pointer;"><path id="kity_path_430" fill="white" stroke="gray" d="M111.50000747293234,470.50000511854887A6,6,0,1,1,99.50000747293234,470.50000511854887A6,6,0,1,1,111.50000747293234,470.50000511854887"></path><path id="kity_path_431" fill="none" stroke="gray"></path></g><path id="node_outline50" fill="rgb(239, 238, 246)" stroke="rgb(123, 115, 191)" d="M88.50000747293234,457.50000511854887h250a3,3,0,0,1,3,3v20a3,3,0,0,1,-3,3h-250a3,3,0,0,1,-3,-3v-20a3,3,0,0,1,3,-3z" stroke-width="1"></path><g id="node_text50" fill="black"><text id="kity_text_229" text-rendering="inherit" font-size="14" dy=".8em" y="461.40000508725643" x="105.50000747293234">hyper-cloud-oa (办公自动化系统)</text></g></g><g id="minder_node51"><g id="node_expander50" display="none" style="cursor: pointer;"><path id="kity_path_433" fill="white" stroke="gray" d="M131.50000777095556,512.5000057443976A6,6,0,1,1,119.50000777095556,512.5000057443976A6,6,0,1,1,131.50000777095556,512.5000057443976"></path><path id="kity_path_434" fill="none" stroke="gray"></path></g><path id="node_outline51" fill="rgb(239, 238, 246)" stroke="rgb(123, 115, 191)" d="M108.50000777095556,499.50000574439764h230a3,3,0,0,1,3,3v20a3,3,0,0,1,-3,3h-230a3,3,0,0,1,-3,-3v-20a3,3,0,0,1,3,-3z" stroke-width="1"></path><g id="node_text51" fill="black"><text id="kity_text_231" text-rendering="inherit" font-size="14" dy=".8em" y="503.4000057131052" x="125.50000777095556">hyper-cloud-demo (实例模块)</text></g></g><g id="minder_node52"><g id="node_expander51" display="none" style="cursor: pointer;"><path id="kity_path_436" fill="white" stroke="gray" d="M110.50000745803118,554.5000063702464A6,6,0,1,1,98.50000745803118,554.5000063702464A6,6,0,1,1,110.50000745803118,554.5000063702464"></path><path id="kity_path_437" fill="none" stroke="gray"></path></g><path id="node_outline52" fill="rgb(239, 238, 246)" stroke="rgb(123, 115, 191)" d="M87.50000745803118,541.5000063702464h251a3,3,0,0,1,3,3v20a3,3,0,0,1,-3,3h-251a3,3,0,0,1,-3,-3v-20a3,3,0,0,1,3,-3z" stroke-width="1"></path><g id="node_text52" fill="black"><text id="kity_text_233" text-rendering="inherit" font-size="14" dy=".8em" y="545.400006338954" x="104.50000745803118">hyper-cloud-common (通用组件)</text></g></g></g></g></svg>